<svg width="329" height="263" viewBox="0 0 329 263" fill="none" xmlns="http://www.w3.org/2000/svg">
<path d="M76.0225 62.9531V190.286H76.2092C78.1445 215.258 118.341 235.242 167.764 235.242C217.188 235.242 257.385 215.28 259.32 190.286H259.501V62.9531H76.0225Z" fill="#11567D" stroke="white" stroke-width="8" stroke-linecap="round" stroke-linejoin="round"/>
<path d="M324.882 84.0424L164.66 164.085L4.42676 84.0424L164.66 4L324.882 84.0424Z" fill="#11567D" stroke="white" stroke-width="8" stroke-linecap="round" stroke-linejoin="round"/>
<circle cx="248.5" cy="214.5" r="48.5" fill="white"/>
<path d="M248.388 171.744C271.94 171.744 291.033 190.837 291.033 214.389C291.033 237.941 271.94 257.034 248.388 257.034C224.836 257.034 205.743 237.941 205.743 214.389C205.743 190.837 224.836 171.744 248.388 171.744ZM248.388 187.251L247.691 187.314C246.109 187.601 244.861 188.849 244.574 190.431L244.511 191.128V210.512H225.127L224.43 210.575C222.848 210.862 221.6 212.11 221.313 213.692L221.25 214.389L221.313 215.086C221.6 216.668 222.848 217.916 224.43 218.203L225.127 218.266H244.511V237.65L244.574 238.347C244.861 239.929 246.109 241.177 247.691 241.464L248.388 241.527L249.085 241.464C250.667 241.177 251.915 239.929 252.202 238.347L252.265 237.65V218.266H271.649L272.346 218.203C273.928 217.916 275.176 216.668 275.463 215.086L275.526 214.389L275.463 213.692C275.176 212.11 273.928 210.862 272.346 210.575L271.649 210.512H252.265V191.128L252.202 190.431C251.915 188.849 250.667 187.601 249.085 187.314L248.388 187.251Z" fill="#11567D"/>
</svg>
