<svg width="239" height="259" viewBox="0 0 239 259" fill="none" xmlns="http://www.w3.org/2000/svg">
<path fill-rule="evenodd" clip-rule="evenodd" d="M39 21H181C190.941 21 199 29.0589 199 39V56H21V39C21 29.0589 29.0588 21 39 21ZM21 74V192.24C21 202.181 29.0589 210.24 39 210.24H181C190.941 210.24 199 202.181 199 192.24V74H21ZM0 39C0 17.4609 17.4609 0 39 0H181C202.539 0 220 17.4609 220 39V192.24C220 213.779 202.539 231.24 181 231.24H39C17.4609 231.24 0 213.779 0 192.24V39Z" fill="#11567D"/>
<circle cx="190.5" cy="210.5" r="48.5" fill="white"/>
<path d="M190.388 167.744C213.94 167.744 233.033 186.837 233.033 210.389C233.033 233.941 213.94 253.034 190.388 253.034C166.836 253.034 147.743 233.941 147.743 210.389C147.743 186.837 166.836 167.744 190.388 167.744ZM190.388 183.251L189.691 183.314C188.109 183.601 186.861 184.849 186.574 186.431L186.511 187.128V206.512H167.127L166.43 206.575C164.848 206.862 163.6 208.11 163.313 209.692L163.25 210.389L163.313 211.086C163.6 212.668 164.848 213.916 166.43 214.203L167.127 214.266H186.511V233.65L186.574 234.347C186.861 235.929 188.109 237.177 189.691 237.464L190.388 237.527L191.085 237.464C192.667 237.177 193.915 235.929 194.202 234.347L194.265 233.65V214.266H213.649L214.346 214.203C215.928 213.916 217.176 212.668 217.463 211.086L217.526 210.389L217.463 209.692C217.176 208.11 215.928 206.862 214.346 206.575L213.649 206.512H194.265V187.128L194.202 186.431C193.915 184.849 192.667 183.601 191.085 183.314L190.388 183.251Z" fill="#11567D"/>
</svg>
