<svg width="52" height="48" viewBox="0 0 52 48" fill="none" xmlns="http://www.w3.org/2000/svg">
<path d="M42.8839 3.25586V9.74423M42.8839 9.74423V16.2326M42.8839 9.74423H36.3955M42.8839 9.74423H49.3723" stroke="#11567D" stroke-width="5" stroke-linecap="round" stroke-linejoin="round"/>
<path d="M26.1396 36.744C31.8037 36.744 36.3954 32.1524 36.3954 26.4882C36.3954 20.8241 31.8037 16.2324 26.1396 16.2324C20.4755 16.2324 15.8838 20.8241 15.8838 26.4882C15.8838 32.1524 20.4755 36.744 26.1396 36.744Z" fill="#F5A747" stroke="#11567D" stroke-width="5" stroke-linecap="round" stroke-linejoin="round"/>
<path d="M49.3719 21.3867V39.5175C49.3719 42.3785 47.0605 44.6977 44.2091 44.6977H8.06953C5.2182 44.6977 2.90674 42.3785 2.90674 39.5175V16.2064C2.90674 13.3455 5.2182 11.0262 8.06953 11.0262H11.9416C13.5666 11.0262 15.0968 10.2585 16.0719 8.95411L18.7823 5.32795C19.7573 4.02354 21.2876 3.25586 22.9126 3.25586H29.366" stroke="#11567D" stroke-width="5" stroke-linecap="round" stroke-linejoin="round"/>
</svg>
